<svg width="29" height="53" viewBox="0 0 29 53" fill="none" xmlns="http://www.w3.org/2000/svg">
<path d="M8.5788 7.33198e-06C8.5788 7.33198e-06 10.3744 2.5516 9.9347 5.26662C9.5051 7.90544 7.62694 9.93019 7.03105 9.8467C7.01436 9.84432 6.99798 9.83977 6.98243 9.83459C6.44868 9.62166 5.18609 7.28289 5.62654 4.56798C6.06782 1.85244 8.5788 7.33198e-06 8.5788 7.33198e-06Z" fill="#2B2B2B"/>
<path d="M13.5437 9.00123C13.5437 9.00123 13.8233 12.1072 12.0817 14.2387C10.565 16.0961 8.28556 16.9425 7.48849 16.8318C7.37022 16.815 7.2845 16.7776 7.23939 16.7201C6.88392 16.2694 6.96049 13.6142 8.70139 11.4826C10.4416 9.35092 13.5437 9.00123 13.5437 9.00123Z" fill="#2B2B2B"/>
<path d="M1.80021 7.20016C1.80021 7.20016 4.63199 8.51287 5.60955 11.0854C6.58712 13.6579 5.90997 16.4337 5.34068 16.5167C5.30358 16.5225 5.25932 16.5214 5.20853 16.5141C4.48339 16.4129 2.44458 15.0373 1.53051 12.6321C0.553156 10.0582 1.80021 7.20016 1.80021 7.20016Z" fill="#2B2B2B"/>
<path d="M12.1336 16.4603C12.1336 16.4603 12.8535 19.4953 11.435 21.8526C10.1457 23.9946 7.87905 25.1667 7.16251 25.0675C7.08996 25.0571 7.03409 25.0336 6.99551 24.9978C6.57902 24.6012 6.27564 21.9629 7.69484 19.6057C9.11414 17.2478 12.1336 16.4603 12.1336 16.4603Z" fill="#2B2B2B"/>
<path d="M0.252457 16.3502C0.252457 16.3502 3.24358 17.2463 4.57792 19.653C5.91289 22.0605 5.6377 24.904 5.08669 25.0666C5.02016 25.0867 4.92584 25.0887 4.80903 25.0721C3.96189 24.9542 1.9347 23.8812 0.761743 21.7653C-0.573119 19.357 0.252457 16.3502 0.252457 16.3502Z" fill="#2B2B2B"/>
<path d="M12.482 22.9566C12.482 22.9566 13.8939 25.7382 13.0681 28.3627C12.2818 30.8604 10.2034 32.5756 9.57552 32.4883C9.5436 32.4837 9.5153 32.4745 9.49135 32.4607C8.99405 32.1739 8.07943 29.6791 8.90599 27.0548C9.7312 24.4295 12.482 22.9566 12.482 22.9566Z" fill="#2B2B2B"/>
<path d="M1.34889 25.6799C2.27511 25.809 4.45193 26.2688 5.88606 27.8303C7.74832 29.8575 8.14962 32.6865 7.6512 32.9734C7.50914 33.0559 7.19365 33.0775 6.77273 33.0182C5.71881 32.8709 4.0024 32.2246 2.67207 30.7761C0.810635 28.7484 0.907861 25.6318 0.907861 25.6318C0.907861 25.6318 1.07297 25.642 1.34889 25.6799Z" fill="#2B2B2B"/>
<path d="M13.8429 29.0914C13.8429 29.0914 16.1507 31.1917 16.3106 33.9383C16.4714 36.6783 14.9983 39.118 14.427 39.038C14.4256 39.0378 14.4249 39.0377 14.4234 39.0375C13.8561 38.9455 12.1156 36.9372 11.9548 34.1913C11.7951 31.444 13.8429 29.0914 13.8429 29.0914Z" fill="#2B2B2B"/>
<path d="M7.54461 35.4231C8.16309 35.5091 8.80192 35.6808 9.40981 35.9864C11.8714 37.2212 13.2505 39.7244 12.8872 40.1696C12.6378 40.475 11.3282 40.8074 9.73501 40.5846C9.00914 40.4833 8.22271 40.2669 7.45248 39.8798C4.99157 38.6451 3.97447 35.6957 3.97447 35.6957C3.97447 35.6957 5.66097 35.1604 7.54461 35.4231Z" fill="#2B2B2B"/>
<path d="M17.7786 35.4441C17.7786 35.4441 20.5439 36.8917 21.3958 39.5078C22.2478 42.1239 21.4356 44.8635 20.8628 44.9187C20.8206 44.9229 20.7698 44.9185 20.7118 44.9057C19.9756 44.7457 18.0352 43.2774 17.2465 40.8544C16.3945 38.2383 17.7786 35.4441 17.7786 35.4441Z" fill="#2B2B2B"/>
<path d="M15.2714 43.2433C17.9494 43.8246 19.9022 45.8833 19.6637 46.4028C19.4245 46.9259 17.0267 48.0723 14.3327 47.4995C14.3248 47.4977 14.3177 47.4962 14.3091 47.4943C11.6291 46.9119 9.90834 44.3322 9.90834 44.3322C9.90834 44.3322 12.545 42.6642 15.24 43.2364C15.25 43.2386 15.2607 43.241 15.2714 43.2433Z" fill="#2B2B2B"/>
<path d="M23.4494 40.0557C24.3419 40.4363 26.2649 41.4313 27.2314 43.2615C28.5165 45.695 28.1819 48.5327 27.628 48.6851C27.466 48.7295 27.1442 48.6652 26.737 48.4917C25.7553 48.0736 24.2805 47.0162 23.3722 45.2955C22.0864 42.8617 22.9746 39.8723 22.9746 39.8723C22.9746 39.8723 23.156 39.9311 23.4494 40.0557Z" fill="#2B2B2B"/>
<path d="M24.5637 48.6187C25.9142 49.1938 26.7926 50.0019 26.7002 50.3519C26.5539 50.9066 24.3861 52.4444 21.6342 52.3387C20.8531 52.3089 20.1207 52.1048 19.4729 51.8287C17.8366 51.1315 16.7346 49.9698 16.7346 49.9698C16.7346 49.9698 19.0485 47.8779 21.801 47.9839C22.8177 48.0226 23.7718 48.2806 24.5637 48.6187Z" fill="#2B2B2B"/>
</svg>
