<svg width="29" height="53" viewBox="0 0 29 53" fill="none" xmlns="http://www.w3.org/2000/svg">
<path d="M19.5407 7.33198e-06C19.5407 7.33198e-06 17.7451 2.5516 18.1848 5.26662C18.6144 7.90544 20.4926 9.93019 21.0885 9.8467C21.1051 9.84432 21.1215 9.83977 21.1371 9.83459C21.6708 9.62166 22.9334 7.28289 22.493 4.56798C22.0517 1.85244 19.5407 7.33198e-06 19.5407 7.33198e-06Z" fill="#2B2B2B"/>
<path d="M14.5758 9.00123C14.5758 9.00123 14.2962 12.1072 16.0378 14.2387C17.5545 16.0961 19.8339 16.9425 20.631 16.8318C20.7493 16.815 20.835 16.7776 20.8801 16.7201C21.2356 16.2694 21.159 13.6142 19.4181 11.4826C17.6779 9.35092 14.5758 9.00123 14.5758 9.00123Z" fill="#2B2B2B"/>
<path d="M26.3193 7.20016C26.3193 7.20016 23.4875 8.51287 22.51 11.0854C21.5324 13.6579 22.2095 16.4337 22.7788 16.5167C22.8159 16.5225 22.8602 16.5214 22.911 16.5141C23.6361 16.4129 25.6749 15.0373 26.589 12.6321C27.5664 10.0582 26.3193 7.20016 26.3193 7.20016Z" fill="#2B2B2B"/>
<path d="M15.9859 16.4603C15.9859 16.4603 15.266 19.4953 16.6845 21.8526C17.9738 23.9946 20.2405 25.1667 20.957 25.0675C21.0295 25.0571 21.0854 25.0336 21.124 24.9978C21.5405 24.6012 21.8439 21.9629 20.4247 19.6057C19.0054 17.2478 15.9859 16.4603 15.9859 16.4603Z" fill="#2B2B2B"/>
<path d="M27.867 16.3502C27.867 16.3502 24.8759 17.2463 23.5416 19.653C22.2066 22.0605 22.4818 24.904 23.0328 25.0666C23.0993 25.0867 23.1937 25.0887 23.3105 25.0721C24.1576 24.9542 26.1848 23.8812 27.3578 21.7653C28.6926 19.357 27.867 16.3502 27.867 16.3502Z" fill="#2B2B2B"/>
<path d="M15.6375 22.9566C15.6375 22.9566 14.2256 25.7382 15.0515 28.3627C15.8377 30.8604 17.9161 32.5756 18.544 32.4883C18.5759 32.4837 18.6042 32.4745 18.6282 32.4607C19.1255 32.1739 20.0401 29.6791 19.2135 27.0548C18.3883 24.4295 15.6375 22.9566 15.6375 22.9566Z" fill="#2B2B2B"/>
<path d="M26.7706 25.6799C25.8444 25.809 23.6676 26.2688 22.2334 27.8303C20.3712 29.8575 19.9699 32.6865 20.4683 32.9734C20.6104 33.0559 20.9259 33.0775 21.3468 33.0182C22.4007 32.8709 24.1171 32.2246 25.4474 30.7761C27.3089 28.7484 27.2116 25.6318 27.2116 25.6318C27.2116 25.6318 27.0465 25.642 26.7706 25.6799Z" fill="#2B2B2B"/>
<path d="M14.2766 29.0914C14.2766 29.0914 11.9688 31.1917 11.8089 33.9383C11.6481 36.6783 13.1213 39.118 13.6925 39.038C13.6939 39.0378 13.6946 39.0377 13.6961 39.0375C14.2634 38.9455 16.004 36.9372 16.1647 34.1913C16.3244 31.444 14.2766 29.0914 14.2766 29.0914Z" fill="#2B2B2B"/>
<path d="M20.5749 35.4231C19.9564 35.5091 19.3176 35.6808 18.7097 35.9864C16.2481 37.2212 14.869 39.7244 15.2323 40.1696C15.4817 40.475 16.7913 40.8074 18.3845 40.5846C19.1104 40.4833 19.8968 40.2669 20.667 39.8798C23.1279 38.6451 24.145 35.6957 24.145 35.6957C24.145 35.6957 22.4585 35.1604 20.5749 35.4231Z" fill="#2B2B2B"/>
<path d="M10.3409 35.4441C10.3409 35.4441 7.57563 36.8917 6.72369 39.5078C5.87175 42.1239 6.68391 44.8635 7.25671 44.9187C7.29891 44.9229 7.34971 44.9185 7.40768 44.9057C8.14391 44.7457 10.0843 43.2774 10.873 40.8544C11.725 38.2383 10.3409 35.4441 10.3409 35.4441Z" fill="#2B2B2B"/>
<path d="M12.8481 43.2433C10.1701 43.8246 8.21735 45.8833 8.45577 46.4028C8.69497 46.9259 11.0928 48.0723 13.7868 47.4995C13.7947 47.4977 13.8018 47.4962 13.8104 47.4943C16.4904 46.9119 18.2112 44.3322 18.2112 44.3322C18.2112 44.3322 15.5745 42.6642 12.8796 43.2364C12.8695 43.2386 12.8588 43.241 12.8481 43.2433Z" fill="#2B2B2B"/>
<path d="M4.6701 40.0557C3.77756 40.4363 1.85461 41.4313 0.888147 43.2615C-0.397022 45.695 -0.0623712 48.5327 0.491545 48.6851C0.653465 48.7295 0.975276 48.6652 1.38249 48.4917C2.36419 48.0736 3.839 47.0162 4.74729 45.2955C6.03314 42.8617 5.14486 39.8723 5.14486 39.8723C5.14486 39.8723 4.96354 39.9311 4.6701 40.0557Z" fill="#2B2B2B"/>
<path d="M3.55581 48.6187C2.20527 49.1938 1.32687 50.0019 1.41932 50.3519C1.56565 50.9066 3.73345 52.4444 6.48535 52.3387C7.26642 52.3089 7.99877 52.1048 8.64662 51.8287C10.2829 51.1315 11.3849 49.9698 11.3849 49.9698C11.3849 49.9698 9.07104 47.8779 6.31847 47.9839C5.30183 48.0226 4.34774 48.2806 3.55581 48.6187Z" fill="#2B2B2B"/>
</svg>
