<svg width="30" height="30" viewBox="0 0 30 30" fill="none" xmlns="http://www.w3.org/2000/svg">
<path fill-rule="evenodd" clip-rule="evenodd" d="M17.5201 0C21.8884 0 24.0729 5.37872e-05 25.7414 0.850195C27.2089 1.59797 28.402 2.79112 29.1498 4.25859C29.9999 5.92709 30 8.11155 30 12.4799V17.5201C30 21.8884 29.9999 24.0729 29.1498 25.7414C28.402 27.2089 27.2089 28.402 25.7414 29.1498C24.0729 29.9999 21.8884 30 17.5201 30H12.4799C8.11155 30 5.92709 29.9999 4.25859 29.1498C2.79112 28.402 1.59797 27.2089 0.850195 25.7414C5.37872e-05 24.0729 0 21.8884 0 17.5201V12.4799C0 8.11155 5.37872e-05 5.92709 0.850195 4.25859C1.59797 2.79112 2.79112 1.59797 4.25859 0.850195C5.92709 5.37872e-05 8.11155 0 12.4799 0H17.5201ZM18.3932 7.2C15.7724 7.2 13.54 8.91379 12.8104 10.9904L8.36895 7.40332L4.8 11.5189L7.88731 14.0262V21.8045H13.4396V12.0738C13.4397 10.6704 14.2849 9.84258 15.4377 9.84258C16.7212 9.8426 17.2119 10.4633 17.2119 12.2572V19.05C17.2119 20.3489 17.4722 21.2924 17.9924 21.8801C19.8622 23.7557 23.6601 22.4369 25.1771 20.8207C25.2475 20.7455 25.1404 20.6338 25.0482 20.6824C24.5906 20.9241 24.1241 21.0451 23.6484 21.0451C22.9894 21.0451 22.66 20.5813 22.66 19.6535V12.6281C22.6599 9.81771 21.6995 7.20012 18.3932 7.2Z" fill="#808080"/>
</svg>
