<svg width="90" height="34" viewBox="0 0 90 34" fill="none" xmlns="http://www.w3.org/2000/svg">
<g clip-path="url(#clip0_3821_872)">
<g filter="url(#filter0_d_3821_872)">
<path d="M19.3271 0C24.3272 0 26.8275 -0.000344815 28.7373 0.972656C30.4172 1.82862 31.7827 3.1951 32.6387 4.875C33.6118 6.78485 33.6123 9.2849 33.6123 14.2852V19.3271C33.6123 24.3274 33.6118 26.8275 32.6387 28.7373C31.7827 30.4171 30.4171 31.7827 28.7373 32.6387C26.8275 33.6118 24.3274 33.6123 19.3271 33.6123H14.2852C9.2849 33.6123 6.78485 33.6118 4.875 32.6387C3.1951 31.7827 1.82862 30.4172 0.972656 28.7373C-0.000345205 26.8275 0 24.3272 0 19.3271V14.2852C0 9.28512 -0.000330565 6.78482 0.972656 4.875C1.82864 3.19504 3.19504 1.82864 4.875 0.972656C6.78482 -0.000330955 9.28512 0 14.2852 0H19.3271ZM20.4893 8.40332C17.6528 8.40335 15.2369 10.3054 14.4473 12.6104L9.64062 8.62891L5.77734 13.1973L9.11914 15.9795V24.6123H15.1289V13.8125C15.129 12.2549 16.0434 11.3359 17.291 11.3359C18.68 11.336 19.2109 12.0255 19.2109 14.0166V21.5557C19.2109 22.9975 19.4925 24.045 20.0557 24.6973C22.0793 26.779 26.1901 25.3153 27.832 23.5215C27.9085 23.438 27.7922 23.3141 27.6924 23.3682C27.1973 23.6362 26.6924 23.7705 26.1777 23.7705C25.4644 23.7705 25.1075 23.2553 25.1074 22.2256V14.4277C25.1073 11.3084 24.0679 8.40332 20.4893 8.40332Z" fill="#1A1A1A"/>
</g>
<path d="M55.0852 8.82364V25.3066H52.4292L44.6626 14.0792H44.5258V25.3066H41.5398V8.82364H44.2119L51.9705 20.0591H52.1153V8.82364H55.0852ZM65.636 20.1074V12.9444H68.5495V25.3066H65.7245V23.1094H65.5958C65.3167 23.8016 64.858 24.3677 64.2195 24.8076C63.5863 25.2476 62.8057 25.4676 61.8774 25.4676C61.0672 25.4676 60.3509 25.2879 59.7285 24.9284C59.1115 24.5635 58.6286 24.035 58.2798 23.3428C57.931 22.6453 57.7567 21.8029 57.7567 20.8157V12.9444H60.6702V20.365C60.6702 21.1483 60.8848 21.7707 61.314 22.2322C61.7433 22.6936 62.3067 22.9243 63.0042 22.9243C63.4334 22.9243 63.8493 22.8197 64.2517 22.6104C64.6541 22.4012 64.9841 22.09 65.2416 21.6768C65.5045 21.2583 65.636 20.7352 65.636 20.1074ZM71.221 25.3066V8.82364H74.1345V14.9887H74.2552C74.4054 14.6882 74.6174 14.3689 74.891 14.0309C75.1647 13.6875 75.5349 13.3951 76.0017 13.1536C76.4685 12.9068 77.0641 12.7834 77.7884 12.7834C78.7435 12.7834 79.6047 13.0276 80.3719 13.5158C81.1446 13.9987 81.7563 14.715 82.207 15.6647C82.663 16.6091 82.8911 17.768 82.8911 19.1416C82.8911 20.4991 82.6684 21.6527 82.2231 22.6024C81.7777 23.5521 81.1714 24.2765 80.4041 24.7755C79.6369 25.2744 78.7676 25.5239 77.7965 25.5239C77.0882 25.5239 76.5007 25.4059 76.0339 25.1698C75.5671 24.9337 75.1915 24.6494 74.9071 24.3167C74.6281 23.9787 74.4108 23.6594 74.2552 23.3589H74.0862V25.3066H71.221ZM74.0781 19.1255C74.0781 19.925 74.1908 20.6252 74.4162 21.2261C74.6469 21.8271 74.9769 22.2966 75.4061 22.6346C75.8407 22.9673 76.3665 23.1336 76.9836 23.1336C77.6275 23.1336 78.1667 22.9619 78.6013 22.6185C79.0359 22.2697 79.3632 21.7949 79.5832 21.1939C79.8086 20.5876 79.9212 19.8982 79.9212 19.1255C79.9212 18.3582 79.8112 17.6768 79.5912 17.0812C79.3713 16.4857 79.044 16.0189 78.6094 15.6808C78.1747 15.3428 77.6328 15.1738 76.9836 15.1738C76.3612 15.1738 75.8327 15.3374 75.3981 15.6647C74.9635 15.992 74.6335 16.4508 74.4081 17.041C74.1881 17.6312 74.0781 18.326 74.0781 19.1255ZM87.8282 8.82364V25.3066H84.9147V8.82364H87.8282Z" fill="#1A1A1A"/>
</g>
<defs>
<filter id="filter0_d_3821_872" x="-100.837" y="-100.837" width="235.288" height="235.287" filterUnits="userSpaceOnUse" color-interpolation-filters="sRGB">
<feFlood flood-opacity="0" result="BackgroundImageFix"/>
<feColorMatrix in="SourceAlpha" type="matrix" values="0 0 0 0 0 0 0 0 0 0 0 0 0 0 0 0 0 0 127 0" result="hardAlpha"/>
<feOffset/>
<feGaussianBlur stdDeviation="50.4186"/>
<feComposite in2="hardAlpha" operator="out"/>
<feColorMatrix type="matrix" values="0 0 0 0 0.968627 0 0 0 0 0.968627 0 0 0 0 0.968627 0 0 0 1 0"/>
<feBlend mode="normal" in2="BackgroundImageFix" result="effect1_dropShadow_3821_872"/>
<feBlend mode="normal" in="SourceGraphic" in2="effect1_dropShadow_3821_872" result="shape"/>
</filter>
<clipPath id="clip0_3821_872">
<rect width="89.9147" height="33.6124" fill="white"/>
</clipPath>
</defs>
</svg>
