<svg width="236" height="175" viewBox="0 0 236 175" fill="none" xmlns="http://www.w3.org/2000/svg">
<g filter="url(#filter0_d_3821_872)">
<path d="M120.165 40C125.165 40 127.665 39.9997 129.575 40.9727C131.255 41.8286 132.621 43.1951 133.477 44.875C134.45 46.7849 134.45 49.2849 134.45 54.2852V59.3271C134.45 64.3274 134.45 66.8275 133.477 68.7373C132.621 70.4171 131.255 71.7827 129.575 72.6387C127.665 73.6118 125.165 73.6123 120.165 73.6123H115.123C110.123 73.6123 107.623 73.6118 105.713 72.6387C104.033 71.7827 102.667 70.4172 101.811 68.7373C100.838 66.8275 100.838 64.3272 100.838 59.3271V54.2852C100.838 49.2851 100.838 46.7848 101.811 44.875C102.667 43.195 104.033 41.8286 105.713 40.9727C107.623 39.9997 110.123 40 115.123 40H120.165ZM121.327 48.4033C118.491 48.4034 116.075 50.3054 115.285 52.6104L110.479 48.6289L106.615 53.1973L109.957 55.9795V64.6123H115.967V53.8125C115.967 52.2549 116.881 51.3359 118.129 51.3359C119.518 51.336 120.049 52.0255 120.049 54.0166V61.5557C120.049 62.9975 120.33 64.045 120.894 64.6973C122.917 66.779 127.028 65.3153 128.67 63.5215C128.746 63.438 128.63 63.3141 128.53 63.3682C128.035 63.6362 127.53 63.7705 127.016 63.7705C126.302 63.7705 125.945 63.2553 125.945 62.2256V54.4277C125.945 51.3084 124.906 48.4033 121.327 48.4033Z" fill="#1A1A1A"/>
</g>
<path d="M155.923 48.8236V65.3066H153.267L145.5 54.0792H145.364V65.3066H142.378V48.8236H145.05L152.808 60.0591H152.953V48.8236H155.923ZM166.474 60.1074V52.9444H169.387V65.3066H166.562V63.1094H166.434C166.155 63.8016 165.696 64.3677 165.057 64.8076C164.424 65.2476 163.644 65.4676 162.715 65.4676C161.905 65.4676 161.189 65.2879 160.566 64.9284C159.949 64.5635 159.466 64.035 159.118 63.3428C158.769 62.6453 158.595 61.8029 158.595 60.8157V52.9444H161.508V60.365C161.508 61.1483 161.723 61.7707 162.152 62.2322C162.581 62.6936 163.145 62.9243 163.842 62.9243C164.271 62.9243 164.687 62.8197 165.09 62.6104C165.492 62.4012 165.822 62.09 166.08 61.6768C166.342 61.2583 166.474 60.7352 166.474 60.1074ZM172.059 65.3066V48.8236H174.972V54.9887H175.093C175.243 54.6882 175.455 54.3689 175.729 54.0309C176.003 53.6875 176.373 53.3951 176.84 53.1536C177.306 52.9068 177.902 52.7834 178.626 52.7834C179.581 52.7834 180.443 53.0276 181.21 53.5158C181.982 53.9987 182.594 54.715 183.045 55.6647C183.501 56.6091 183.729 57.768 183.729 59.1416C183.729 60.4991 183.506 61.6527 183.061 62.6024C182.616 63.5521 182.009 64.2765 181.242 64.7755C180.475 65.2744 179.606 65.5239 178.634 65.5239C177.926 65.5239 177.339 65.4059 176.872 65.1698C176.405 64.9337 176.029 64.6494 175.745 64.3167C175.466 63.9787 175.249 63.6594 175.093 63.3589H174.924V65.3066H172.059ZM174.916 59.1255C174.916 59.925 175.029 60.6252 175.254 61.2261C175.485 61.8271 175.815 62.2966 176.244 62.6346C176.679 62.9673 177.204 63.1336 177.821 63.1336C178.465 63.1336 179.005 62.9619 179.439 62.6185C179.874 62.2697 180.201 61.7949 180.421 61.1939C180.646 60.5876 180.759 59.8982 180.759 59.1255C180.759 58.3582 180.649 57.6768 180.429 57.0812C180.209 56.4857 179.882 56.0189 179.447 55.6808C179.013 55.3428 178.471 55.1738 177.821 55.1738C177.199 55.1738 176.671 55.3374 176.236 55.6647C175.801 55.992 175.471 56.4508 175.246 57.041C175.026 57.6312 174.916 58.326 174.916 59.1255ZM188.666 48.8236V65.3066H185.753V48.8236H188.666Z" fill="#1A1A1A"/>
<defs>
<filter id="filter0_d_3821_872" x="0.000724792" y="-60.8372" width="235.288" height="235.287" filterUnits="userSpaceOnUse" color-interpolation-filters="sRGB">
<feFlood flood-opacity="0" result="BackgroundImageFix"/>
<feColorMatrix in="SourceAlpha" type="matrix" values="0 0 0 0 0 0 0 0 0 0 0 0 0 0 0 0 0 0 127 0" result="hardAlpha"/>
<feOffset/>
<feGaussianBlur stdDeviation="50.4186"/>
<feComposite in2="hardAlpha" operator="out"/>
<feColorMatrix type="matrix" values="0 0 0 0 0.968627 0 0 0 0 0.968627 0 0 0 0 0.968627 0 0 0 1 0"/>
<feBlend mode="normal" in2="BackgroundImageFix" result="effect1_dropShadow_3821_872"/>
<feBlend mode="normal" in="SourceGraphic" in2="effect1_dropShadow_3821_872" result="shape"/>
</filter>
</defs>
</svg>
