<svg width="90" height="34" viewBox="0 0 90 34" fill="none" xmlns="http://www.w3.org/2000/svg">
<g clip-path="url(#clip0_3756_149)">
<g filter="url(#filter0_d_3756_149)">
<path d="M19.3271 0C24.3272 0 26.8275 -0.000344815 28.7373 0.972656C30.4172 1.82862 31.7827 3.1951 32.6387 4.875C33.6118 6.78485 33.6123 9.2849 33.6123 14.2852V19.3271C33.6123 24.3274 33.6118 26.8275 32.6387 28.7373C31.7827 30.4171 30.4171 31.7827 28.7373 32.6387C26.8275 33.6118 24.3274 33.6123 19.3271 33.6123H14.2852C9.2849 33.6123 6.78485 33.6118 4.875 32.6387C3.1951 31.7827 1.82862 30.4172 0.972656 28.7373C-0.000345205 26.8275 0 24.3272 0 19.3271V14.2852C0 9.28512 -0.000330565 6.78482 0.972656 4.875C1.82864 3.19504 3.19504 1.82864 4.875 0.972656C6.78482 -0.000330955 9.28512 0 14.2852 0H19.3271ZM20.4893 8.40332C17.6528 8.40335 15.2369 10.3054 14.4473 12.6104L9.64062 8.62891L5.77734 13.1973L9.11914 15.9795V24.6123H15.1289V13.8125C15.129 12.2549 16.0434 11.3359 17.291 11.3359C18.68 11.336 19.2109 12.0255 19.2109 14.0166V21.5557C19.2109 22.9975 19.4925 24.045 20.0557 24.6973C22.0794 26.779 26.1901 25.3153 27.832 23.5215C27.9085 23.438 27.7922 23.3141 27.6924 23.3682C27.1973 23.6362 26.6924 23.7705 26.1777 23.7705C25.4644 23.7705 25.1075 23.2553 25.1074 22.2256V14.4277C25.1073 11.3084 24.0679 8.40332 20.4893 8.40332Z" fill="#1A1A1A"/>
</g>
<path d="M55.0859 8.82315V25.3062H52.43L44.6633 14.0787H44.5265V25.3062H41.5406V8.82315H44.2126L51.9712 20.0586H52.1161V8.82315H55.0859ZM65.6367 20.1069V12.9439H68.5502V25.3062H65.7253V23.109H65.5965C65.3175 23.8011 64.8587 24.3672 64.2202 24.8072C63.5871 25.2471 62.8064 25.4671 61.8781 25.4671C61.068 25.4671 60.3516 25.2874 59.7292 24.9279C59.1122 24.563 58.6293 24.0345 58.2805 23.3424C57.9318 22.6448 57.7574 21.8024 57.7574 20.8152V12.9439H60.6709V20.3645C60.6709 21.1478 60.8855 21.7702 61.3148 22.2317C61.744 22.6931 62.3074 22.9238 63.0049 22.9238C63.4342 22.9238 63.85 22.8192 64.2524 22.61C64.6548 22.4007 64.9848 22.0895 65.2424 21.6764C65.5053 21.2578 65.6367 20.7347 65.6367 20.1069ZM71.2217 25.3062V8.82315H74.1352V14.9882H74.2559C74.4062 14.6877 74.6181 14.3685 74.8918 14.0304C75.1654 13.687 75.5356 13.3946 76.0024 13.1532C76.4692 12.9063 77.0648 12.7829 77.7892 12.7829C78.7442 12.7829 79.6054 13.0271 80.3727 13.5153C81.1453 13.9982 81.757 14.7145 82.2077 15.6642C82.6638 16.6086 82.8918 17.7675 82.8918 19.1411C82.8918 20.4986 82.6691 21.6522 82.2238 22.6019C81.7784 23.5516 81.1721 24.276 80.4049 24.775C79.6376 25.274 78.7684 25.5235 77.7972 25.5235C77.0889 25.5235 76.5014 25.4054 76.0346 25.1693C75.5678 24.9332 75.1922 24.6489 74.9078 24.3162C74.6288 23.9782 74.4115 23.6589 74.2559 23.3585H74.0869V25.3062H71.2217ZM74.0789 19.125C74.0789 19.9245 74.1915 20.6247 74.4169 21.2256C74.6476 21.8266 74.9776 22.2961 75.4068 22.6341C75.8415 22.9668 76.3673 23.1331 76.9843 23.1331C77.6282 23.1331 78.1674 22.9614 78.602 22.618C79.0366 22.2692 79.3639 21.7944 79.5839 21.1935C79.8093 20.5871 79.922 19.8977 79.922 19.125C79.922 18.3578 79.812 17.6763 79.592 17.0807C79.372 16.4852 79.0447 16.0184 78.6101 15.6803C78.1755 15.3423 77.6336 15.1733 76.9843 15.1733C76.3619 15.1733 75.8334 15.3369 75.3988 15.6642C74.9642 15.9915 74.6342 16.4503 74.4089 17.0405C74.1889 17.6307 74.0789 18.3256 74.0789 19.125ZM87.8289 8.82315V25.3062H84.9154V8.82315H87.8289Z" fill="#1A1A1A"/>
</g>
<defs>
<filter id="filter0_d_3756_149" x="-100.837" y="-100.837" width="235.287" height="235.287" filterUnits="userSpaceOnUse" color-interpolation-filters="sRGB">
<feFlood flood-opacity="0" result="BackgroundImageFix"/>
<feColorMatrix in="SourceAlpha" type="matrix" values="0 0 0 0 0 0 0 0 0 0 0 0 0 0 0 0 0 0 127 0" result="hardAlpha"/>
<feOffset/>
<feGaussianBlur stdDeviation="50.4186"/>
<feComposite in2="hardAlpha" operator="out"/>
<feColorMatrix type="matrix" values="0 0 0 0 0.968627 0 0 0 0 0.968627 0 0 0 0 0.968627 0 0 0 1 0"/>
<feBlend mode="normal" in2="BackgroundImageFix" result="effect1_dropShadow_3756_149"/>
<feBlend mode="normal" in="SourceGraphic" in2="effect1_dropShadow_3756_149" result="shape"/>
</filter>
<clipPath id="clip0_3756_149">
<rect width="89.9147" height="33.6124" fill="white"/>
</clipPath>
</defs>
</svg>
